HIERARCHY
ROOT Hips
{
	OFFSET 0.000000 88.474243 0.000000
	CHANNELS 6 Xposition Yposition Zposition Zrotation Yrotation Xrotation 
	JOINT Hips_Spine
	{
		OFFSET 0.000000 0.000000 0.000000
		CHANNELS 3 Zrotation Yrotation Xrotation
		JOINT Spine
		{
			OFFSET 0.005100 8.711998 -0.691000
			CHANNELS 3 Zrotation Yrotation Xrotation
			JOINT Spine1
			{
				OFFSET -0.009200 8.660301 -1.275000
				CHANNELS 3 Zrotation Yrotation Xrotation
				JOINT Spine2
				{
					OFFSET 0.006300 9.852501 -1.857000
					CHANNELS 3 Zrotation Yrotation Xrotation
					JOINT Spine2_Neck
					{
						OFFSET 0.000000 0.000000 0.000000
						CHANNELS 3 Zrotation Yrotation Xrotation
						JOINT Neck
						{
							OFFSET 0.016300 11.420799 -0.263300
							CHANNELS 3 Zrotation Yrotation Xrotation
							End Site #name: Head
							{
								OFFSET -0.019200 9.262405 2.362500
							}
						}
					}
					JOINT Spine2_LeftShoulder
					{
						OFFSET 0.000000 0.000000 0.000000
						CHANNELS 3 Zrotation Yrotation Xrotation
						JOINT LeftShoulder
						{
							OFFSET 5.616900 6.732201 -0.345700
							CHANNELS 3 Zrotation Yrotation Xrotation
							JOINT LeftArm
							{
								OFFSET 10.664888 -0.183372 -2.440700
								CHANNELS 3 Zrotation Yrotation Xrotation
								JOINT LeftForeArm
								{
									OFFSET 27.459126 0.000000 0.000000
									CHANNELS 3 Zrotation Yrotation Xrotation
									End Site #name: LeftHand
									{
										OFFSET 21.306858 0.000000 0.000000
									}
								}
							}
						}
					}
					JOINT Spine2_RightShoulder
					{
						OFFSET 0.000000 0.000000 0.000000
						CHANNELS 3 Zrotation Yrotation Xrotation
						JOINT RightShoulder
						{
							OFFSET -5.580300 6.737503 -0.344400
							CHANNELS 3 Zrotation Yrotation Xrotation
							JOINT RightArm
							{
								OFFSET -10.679335 -0.188484 -2.383900
								CHANNELS 3 Zrotation Yrotation Xrotation
								JOINT RightForeArm
								{
									OFFSET -27.503529 0.000000 0.000000
									CHANNELS 3 Zrotation Yrotation Xrotation
									End Site #name: RightHand
									{
										OFFSET -21.306808 0.000000 0.000000
									}
								}
							}
						}
					}
				}
			}
		}
	}
	JOINT Hips_LeftUpLeg
	{
		OFFSET 0.000000 0.000000 0.000000
		CHANNELS 3 Zrotation Yrotation Xrotation
		JOINT LeftUpLeg
		{
			OFFSET 6.857700 -6.739601 0.312100
			CHANNELS 3 Zrotation Yrotation Xrotation
			JOINT LeftLeg
			{
				OFFSET -0.367590 -34.731552 -4.572400
				CHANNELS 3 Zrotation Yrotation Xrotation
				End Site #name: LeftFoot
				{
					OFFSET 0.367590 -34.656704 -6.067400
				}
			}
		}
	}
	JOINT Hips_RightUpLeg
	{
		OFFSET 0.000000 0.000000 0.000000
		CHANNELS 3 Zrotation Yrotation Xrotation
		JOINT RightUpLeg
		{
			OFFSET -6.876100 -6.733299 0.301000
			CHANNELS 3 Zrotation Yrotation Xrotation
			JOINT RightLeg
			{
				OFFSET 0.347353 -34.795158 -4.515900
				CHANNELS 3 Zrotation Yrotation Xrotation
				End Site #name: RightFoot
				{
					OFFSET -0.347353 -34.589367 -6.070300
				}
			}
		}
	}
}
MOTION
Frames: 13
Frame Time: 0.041667
1.232686 0.245669 0.001846 0.498074 -19.524420 -1.840456 -0.000000 -0.000000 -0.000000 -1.691950 -3.946750 8.185007 -0.548827 -0.383357 1.012184 0.000000 0.000000 0.000000 -0.381228 -0.325168 1.128831 0.224769 -1.191494 -1.436089 -0.417885 -0.331852 1.077106 -14.647477 2.472482 1.347986 -48.189877 -6.226183 36.078981 -1.563919 -83.354458 1.565234 -0.507969 -0.266304 0.970573 17.717319 12.355525 4.266288 57.906624 -1.089988 4.993158 -179.365524 77.443936 -179.560870 -0.000000 0.000000 -0.000000 1.296332 5.589863 -13.117175 -0.716963 -2.863491 12.202560 0.000000 -0.000000 0.000000 -2.950107 -14.739757 -14.484876 0.597675 0.878003 16.749859 
1.293336 0.247640 0.003197 0.463118 -19.533614 -1.846500 -0.000000 -0.000000 -0.000000 -1.732481 -3.969118 8.175975 -0.578634 -0.383683 1.022587 0.000000 0.000000 0.000000 -0.409688 -0.324470 1.143514 0.221140 -1.201584 -1.449907 -0.446654 -0.331350 1.090334 -14.637558 2.490389 1.341834 -48.077638 -6.255637 36.043816 -1.773425 -84.113547 1.776632 -0.535520 -0.265891 0.980178 17.730714 12.378607 4.269361 57.910128 -1.069131 4.890701 -179.367161 77.446624 -179.563005 -0.000000 0.000000 -0.000000 1.285733 5.583002 -13.136972 -0.724364 -2.840047 12.260395 0.000000 -0.000000 0.000000 -2.968747 -14.745638 -14.490566 0.608477 0.900838 16.752513 
1.342029 0.249054 0.004521 0.436021 -19.548135 -1.852570 -0.000000 -0.000000 -0.000000 -1.768774 -3.988149 8.170181 -0.605550 -0.383782 1.032709 0.000000 0.000000 0.000000 -0.435373 -0.323921 1.155752 0.217488 -1.210384 -1.461856 -0.472439 -0.330713 1.103033 -14.623670 2.502472 1.338820 -47.975236 -6.286910 36.050457 -2.066645 -84.889875 2.070664 -0.560419 -0.265895 0.988224 17.739306 12.396084 4.271041 57.908321 -1.049148 4.805056 -179.367850 77.443129 -179.563658 -0.000000 0.000000 -0.000000 1.275662 5.577811 -13.152516 -0.730310 -2.820657 12.306213 0.000000 -0.000000 0.000000 -2.981328 -14.747393 -14.499647 0.619072 0.924329 16.758443 
1.379607 0.249952 0.005776 0.417954 -19.561313 -1.856689 -0.000000 -0.000000 -0.000000 -1.797978 -4.003841 8.169553 -0.629144 -0.383684 1.041488 0.000000 0.000000 0.000000 -0.457103 -0.323534 1.167320 0.217341 -1.216504 -1.463803 -0.494172 -0.329755 1.114414 -14.607730 2.514204 1.334582 -47.864728 -6.321797 36.057610 -2.440747 -85.646907 2.446464 -0.582213 -0.265245 0.995958 17.750870 12.413123 4.272060 57.907462 -1.032021 4.736352 -179.370464 77.434524 -179.566770 -0.000000 0.000000 -0.000000 1.266149 5.569305 -13.167229 -0.737824 -2.806920 12.347637 0.000000 -0.000000 0.000000 -2.991853 -14.752824 -14.509490 0.627523 0.943168 16.765607 
1.406893 0.250498 0.007103 0.408603 -19.577712 -1.860253 -0.000000 -0.000000 -0.000000 -1.820632 -4.014578 8.169979 -0.648438 -0.383739 1.049431 0.000000 0.000000 0.000000 -0.475221 -0.323420 1.176682 0.220630 -1.222587 -1.455628 -0.513598 -0.328757 1.125604 -14.587543 2.524124 1.331661 -47.764025 -6.333731 36.067479 -2.944059 -86.372457 2.950917 -0.601323 -0.264488 1.002814 17.758954 12.432732 4.274323 57.896743 -1.013173 4.686439 -179.372649 77.413948 -179.569529 -0.000000 0.000000 -0.000000 1.261094 5.562977 -13.182106 -0.744726 -2.794674 12.388818 0.000000 -0.000000 0.000000 -2.999751 -14.757923 -14.525575 0.634415 0.959220 16.779443 
1.424279 0.250840 0.008531 0.405854 -19.598625 -1.863093 -0.000000 -0.000000 -0.000000 -1.837792 -4.022621 8.176098 -0.665621 -0.383481 1.055805 0.000000 0.000000 0.000000 -0.490913 -0.323137 1.184657 0.218611 -1.224980 -1.443226 -0.529869 -0.327319 1.133741 -14.569553 2.529530 1.330443 -47.673106 -6.347115 36.112208 -3.688907 -87.065592 3.697854 -0.617110 -0.263864 1.008418 17.758967 12.448460 4.274408 57.882311 -1.000928 4.652508 -179.373937 77.377158 -179.571091 -0.000000 0.000000 -0.000000 1.254172 5.553557 -13.193263 -0.751079 -2.787846 12.417186 0.000000 -0.000000 0.000000 -3.006057 -14.758295 -14.540810 0.641826 0.973425 16.796614 
1.432205 0.251106 0.010135 0.408933 -19.623520 -1.865602 -0.000000 -0.000000 -0.000000 -1.849576 -4.029691 8.183746 -0.679818 -0.383373 1.061916 0.000000 0.000000 0.000000 -0.504055 -0.322952 1.192144 0.215588 -1.227393 -1.430064 -0.543688 -0.326084 1.141242 -14.547034 2.533352 1.328763 -47.606193 -6.365643 36.194237 -4.846143 -87.744401 4.856251 -0.630847 -0.263269 1.014019 17.756338 12.461648 4.274173 57.856957 -0.986549 4.640159 -179.377089 77.325376 -179.574853 -0.000000 0.000000 -0.000000 1.248034 5.543359 -13.201356 -0.757923 -2.785900 12.438814 0.000000 -0.000000 0.000000 -3.009518 -14.758244 -14.557011 0.646928 0.983553 16.813561 
1.431005 0.251438 0.011928 0.418377 -19.651604 -1.867180 -0.000000 -0.000000 -0.000000 -1.859511 -4.032102 8.194086 -0.691420 -0.383616 1.066949 0.000000 0.000000 0.000000 -0.515016 -0.323058 1.198123 0.211689 -1.229220 -1.417038 -0.555490 -0.325325 1.148030 -14.525525 2.536751 1.327619 -47.525365 -6.367012 36.260496 -6.729439 -88.358876 6.740623 -0.642366 -0.262877 1.018132 17.749967 12.477452 4.274213 57.822337 -0.970805 4.638648 -179.383652 77.236883 -179.581509 -0.000000 0.000000 -0.000000 1.242896 5.532943 -13.208103 -0.762462 -2.785945 12.455496 0.000000 -0.000000 0.000000 -3.012748 -14.755671 -14.573139 0.651368 0.991018 16.831979 
1.421055 0.251904 0.013849 0.433879 -19.680165 -1.867561 -0.000000 -0.000000 -0.000000 -1.864473 -4.038042 8.208339 -0.701839 -0.384686 1.071574 0.000000 0.000000 0.000000 -0.524627 -0.323632 1.203788 0.207541 -1.231807 -1.403616 -0.564476 -0.325423 1.152690 -14.507405 2.541567 1.327042 -47.472645 -6.376986 36.375159 -10.934967 -88.974795 10.947247 -0.652523 -0.263272 1.021879 17.734887 12.489181 4.273193 57.780826 -0.951393 4.664903 -179.391486 77.134991 -179.589117 -0.000000 0.000000 -0.000000 1.236607 5.523139 -13.213165 -0.767249 -2.791907 12.464102 0.000000 -0.000000 0.000000 -3.014235 -14.752045 -14.592019 0.653959 0.992228 16.852934 
1.403230 0.252573 0.015943 0.453790 -19.709524 -1.869472 -0.000000 -0.000000 -0.000000 -1.866699 -4.042209 8.226038 -0.710446 -0.385462 1.074005 0.000000 0.000000 0.000000 -0.531979 -0.324154 1.208258 0.202985 -1.234274 -1.387861 -0.573282 -0.325047 1.157407 -14.493662 2.546797 1.328166 -47.403021 -6.377531 36.479603 -23.399045 -89.507018 23.413268 -0.660655 -0.263707 1.024809 17.717924 12.503349 4.273071 57.737910 -0.943994 4.716056 -179.400020 76.999417 -179.597953 -0.000000 0.000000 -0.000000 1.232267 5.514300 -13.215928 -0.772640 -2.798554 12.465847 0.000000 -0.000000 0.000000 -3.013037 -14.743612 -14.605949 0.655860 0.993886 16.866349 
1.378417 0.253565 0.018384 0.479325 -19.733731 -1.871810 -0.000000 -0.000000 -0.000000 -1.871301 -4.048906 8.249406 -0.718188 -0.387461 1.075227 0.000000 0.000000 0.000000 -0.539346 -0.325061 1.212471 0.199895 -1.237428 -1.369585 -0.580911 -0.325322 1.159862 -14.482197 2.555592 1.328073 -47.364129 -6.365732 36.608411 -113.850606 -89.784435 113.865702 -0.668961 -0.264530 1.026951 17.691049 12.515570 4.271709 57.689212 -0.928934 4.779602 -179.411912 76.846899 -179.609681 -0.000000 0.000000 -0.000000 1.227844 5.505258 -13.213908 -0.777148 -2.808932 12.460088 0.000000 -0.000000 0.000000 -3.012017 -14.735604 -14.616859 0.655480 0.988932 16.878272 
1.347411 0.255002 0.021139 0.509506 -19.765303 -1.874931 -0.000000 -0.000000 -0.000000 -1.876532 -4.055793 8.275199 -0.727750 -0.389447 1.076493 0.000000 0.000000 0.000000 -0.546965 -0.326067 1.215761 0.196213 -1.239929 -1.351647 -0.589495 -0.325549 1.160696 -14.480782 2.576079 1.325690 -47.312271 -6.358150 36.701829 -163.043221 -89.320498 163.059445 -0.677050 -0.265878 1.028294 17.656695 12.525091 4.269414 57.640149 -0.919977 4.851178 -179.427142 76.668096 -179.624454 -0.000000 0.000000 -0.000000 1.223364 5.499792 -13.206745 -0.779976 -2.818449 12.445097 0.000000 -0.000000 0.000000 -3.011421 -14.731001 -14.626904 0.656887 0.989256 16.889926 
1.311025 0.256854 0.024293 0.544768 -19.790787 -1.880744 -0.000000 -0.000000 -0.000000 -1.886024 -4.064922 8.295551 -0.740013 -0.391566 1.075215 0.000000 0.000000 0.000000 -0.556062 -0.327358 1.218421 0.191942 -1.243054 -1.331091 -0.600948 -0.325531 1.160747 -14.490545 2.598706 1.324828 -47.257148 -6.346508 36.853484 -170.995128 -88.739466 171.010892 -0.687427 -0.267366 1.028388 17.617761 12.533718 4.265698 57.596053 -0.924052 4.920688 -179.442962 76.477316 -179.639539 -0.000000 0.000000 -0.000000 1.218091 5.494853 -13.197990 -0.782904 -2.830971 12.426048 0.000000 -0.000000 0.000000 -3.010205 -14.723692 -14.630420 0.656298 0.987533 16.898078 
